/* XPM */
static char *icon[] =
{
/* width height ncolors chars_per_pixel */
"48 48 137 2",
/* colors */
"AA c #FFFFFFFFFFFF",
"BA c #FFFFFFFFEFEF",
"CA c #FFFFEFEFD6D6",
"DA c #FFFFE7E7FFFF",
"EA c #FFFFE7E7C6C6",
"FA c #FFFFDEDEB5B5",
"GA c #FFFFD6D6F7F7",
"HA c #FFFFD6D6ADAD",
"IA c #FFFFCECE9494",
"JA c #FFFFC6C68C8C",
"KA c #FFFFBDBD7B7B",
"LA c #FFFFB5B56B6B",
"MA c #F7F7C6C6F7F7",
"NA c #F7F7ADAD5A5A",
"OA c #F7F7A5A54A4A",
"PA c #F7F79C9C3939",
"AB c #F7F79C9C2929",
"BB c #EFEFF7F7FFFF",
"CB c #EFEFEFEFFFFF",
"DB c #EFEFDEDEFFFF",
"EB c #EFEFADADEFEF",
"FB c #E7E7EFEFEFEF",
"GB c #E7E7C6C6EFEF",
"HB c #DEDEDEDEEFEF",
"IB c #DEDEC6C6F7F7",
"JB c #DEDEC6C6EFEF",
"KB c #DEDE8484EFEF",
"LB c #DEDE7B7BE7E7",
"MB c #D6D6E7E7F7F7",
"NB c #D6D6E7E7EFEF",
"OB c #CECEDEDEEFEF",
"PB c #CECECECEE7E7",
"AC c #CECEC6C6CECE",
"BC c #CECEBDBDE7E7",
"CC c #CECEADADEFEF",
"DC c #CECE8C8CE7E7",
"EC c #C6C6C6C6D6D6",
"FC c #C6C6B5B5DEDE",
"GC c #C6C67B7BDEDE",
"HC c #C6C66B6BE7E7",
"IC c #BDBDD6D6EFEF",
"JC c #BDBDC6C6DEDE",
"KC c #BDBDBDBDE7E7",
"LC c #BDBDBDBDDEDE",
"MC c #BDBD9494D6D6",
"NC c #BDBD8C8CEFEF",
"OC c #B5B5CECEE7E7",
"PC c #B5B5B5B5BDBD",
"AD c #ADADCECEE7E7",
"BD c #ADADB5B5D6D6",
"CD c #ADADB5B5CECE",
"DD c #ADADADADD6D6",
"ED c #ADADADADCECE",
"FD c #ADADADADBDBD",
"GD c #ADAD6363E7E7",
"HD c #ADAD6363D6D6",
"ID c #ADAD5A5ADEDE",
"JD c #A5A5C6C6DEDE",
"KD c #A5A5A5A5E7E7",
"LD c #A5A55A5AE7E7",
"MD c #9C9CBDBDDEDE",
"ND c #9C9CA5A5CECE",
"OD c #9C9CA5A5BDBD",
"PD c #9C9C9C9CCECE",
"AE c #9C9C9C9CBDBD",
"BE c #9C9C9C9CA5A5",
"CE c #9C9C9494E7E7",
"DE c #9C9C7B7BD6D6",
"EE c #9C9C5A5ADEDE",
"FE c #94948484DEDE",
"GE c #8C8CB5B5D6D6",
"HE c #8C8C9C9CD6D6",
"IE c #8C8C9C9CCECE",
"JE c #8C8C9494B5B5",
"KE c #8C8C9494ADAD",
"LE c #8C8C8C8CBDBD",
"ME c #8C8C8C8CADAD",
"NE c #848484849C9C",
"OE c #84847B7BBDBD",
"PE c #84845252CECE",
"AF c #7B7BADADD6D6",
"BF c #7B7B9494CECE",
"CF c #7B7B8C8CD6D6",
"DF c #7B7B8484C6C6",
"EF c #7B7B8484B5B5",
"FF c #7B7B8484A5A5",
"GF c #7B7B7B7B9C9C",
"HF c #7B7B5A5ABDBD",
"IF c #7373A5A5CECE",
"JF c #73737B7BA5A5",
"KF c #737373738484",
"LF c #73736363A5A5",
"MF c #6B6B8484BDBD",
"NF c #6B6B7373ADAD",
"OF c #6B6B73739C9C",
"PF c #6B6B6B6BADAD",
"AG c #6B6B6B6B8C8C",
"BG c #6B6B63639C9C",
"CG c #6B6B5252ADAD",
"DG c #6B6B4A4AB5B5",
"EG c #63639C9CCECE",
"FG c #63637B7BBDBD",
"GG c #636363637B7B",
"HG c #63635A5A7B7B",
"IG c #5A5A9494C6C6",
"JG c #5A5A7373ADAD",
"KG c #5A5A6B6BADAD",
"LG c #5A5A6B6B9C9C",
"MG c #5A5A63638C8C",
"NG c #5A5A5A5A9494",
"OG c #5A5A5A5A8C8C",
"PG c #5A5A5A5A7373",
"AH c #525252526B6B",
"BH c #4A4A8C8CC6C6",
"CH c #4A4A63639C9C",
"DH c #4A4A5A5A9C9C",
"EH c #4A4A5252A5A5",
"FH c #4A4A52528484",
"GH c #4A4A52527B7B",
"HH c #4A4A4A4A8C8C",
"IH c #4A4A4A4A7373",
"JH c #4A4A4A4A6363",
"KH c #39394A4A8C8C",
"LH c #393942427373",
"MH c #393939399494",
"NH c #393939398C8C",
"OH c #393939397373",
"PH c #313131316B6B",
"AI c #313129295A5A",
"BI c #292942427B7B",
"CI c #292939397373",
"DI c #292929296B6B",
"EI c #212131316B6B",
"FI c #181829297373",
"GI c #181829296B6B",
"HI c #181821215A5A",
"II c #101018185A5A",
/* pixels */
"AAAAAAAAAAAAAAAAAAAAAAAAAAAAAAAAAAAAAAAAAAAAAAAAAAAAAAAAAAAAAAAAAAAAAAAAAAAAAAAAAAAAAAAAAAAAAAAA",
"AAAAAAAAAAAAAAAAAAAAAAAAAAAAAAAAAAAAAAAAAAAAAAAAAAAAAAAAAAAAAAAAAAAAAAAAAAAAAAAAAAAAAAAAAAAAAAAA",
"AAAAAAAAAAAAAAAAAAAAAAAAAAAAAAAAAAAAAAAAAAAAAAAAAAAAAAAAAAAAAAAAAAAAAAAAAAAAAAAAAAAAAAAAAAAAAAAA",
"AAAAAAAAAAAAAAAAAAAAAAAAAAAAAAAAAAAAAAAAAAAAAAAAAAAAAAAAAAAAAAAAAAAAAAAAAAAAAAAAAAAAAAAAAAAAAAAA",
"AAAAAAAAAAAAAAAAAAAAAAAAAAAAAAAAAAAAAAAAAAAAAAAAAAAAAAAAAAAAAAAAAAAAAAAAAAAAAAAAAAAAAAAAAAAAAAAA",
"AAAAAAAAAAAAAAAAAAAAAABAAAAAAAAAAAAAAAAAAAAAAAAAAAAAAAAAAAAAAAAAAAAAAAAAAAAAAAAAAAAAAAAAAAAAAAAA",
"AAAAAAAAAAAAAAAAAAAAAABAHABAAAAAAAAAAAAAAAAAAAAAAAAAAAAAAAAAAAAAAAAAAAAAAAAAAAAAAAAAAAAAAAAAAAAA",
"AAAAAAAAAAAAAAAAAAAAAAAAAAKAFAAAAAAAAAAAAAAAAAAAAAAAAAAAAAAAMBMBAAAAAAAAAAAAAAAAAAAAAAAAAAAAAAAA",
"AAAAAAAAAAAAAAAAAAAAAAAAAACALAIAAAAAAAAAAAAAAAAAAAAAOBMDMDJCBBAAAAAAAAAAAAAAAAAAAAAAAAAAAAAAAAAA",
"AAAAAAAAAAAAAAAAAAAAAAAAAAAAEAOALACAAAAAAAAAAAAAOCAFJDCBAAAAAAAAAAAAAAAAAAAAAAAAAAAAAAAAAAAAAAAA",
"AAAAAAAAAAAAAAAAAAAAAAAAAAAAAAFAPAOAFAAAAAAAOBIGGECBAAAAAAAAAAAADBJBLCEDLCFBAAAAAAAAAAAAAAAAAAAA",
"AAAAAAAAAAAAAAAAAAAAAAAAAAAAAABBHAPAPAJAAAJDEGJDAAAAAAAAAAJBCCDELFPFNFNFLGDHFHOFLCAAAAAAAAAAAAAA",
"AABAEAEABAAAAAAAAAAAAAAAAAAAAAAAAAJAPAEAIFEGJCAAAAAAAAGBBCDDIEPDLCCDEDODEDODNDOFCIHHFBAAAAAAAAAA",
"AAAAAADAIAJAHACAAAAAAAAAAAAAAAAABBBAEAGEIGBDAAAAAAAADBIBKCDDLCLCNDJEJFFFNFFFFFJEJELHCIECAAAAAAAA",
"AAAAAAAAAABAHALANAJAEABAAAAAAAAAAAAAICIGJDBBAAAADAFBFBPBBCECLCAELENFKGLGLGNGLGLGPFOFOHGIEDAAAAAA",
"AAAAAAAAAAAAAAAAEANAPAOALAHACAAAAABBMFAFOBAAAADBCBCBHBPBECLCPDIEJFNFNGDHFHFHDHFHFHDHOGDIIIHBAAAA",
"AAAAAAAAAAAAAAAAAAAAHANAPAABOANACAGEIGJDAAAACBGBDBECPBPBLCDDAELENFLGKHKHKHFHKHKHIHKHGHCIIIOHAAAA",
"AAAAAAAAAAAAAAAAAAAAAABBFAKAPAOABBIGAFOBAAAAEBJBFCLCLCLCEDNDLENFKGHHKHKHCIKHCIOHBIOHCIOHGIIIMEAA",
"AAAAAAAAAAAAAAAAAAAAAAAABBAAEAEAOCIGGEBBAAEBBCCCEDPDEDAEPDFFOELGFHKHCICINHEICICICICIDIDIHIIIOHAA",
"AAAAAAAAAAAAAAAAAAAAAAAAAAAAAAAAIFEGJDBBAAKDCEHEIEIEBFNDBFIEEGEFMFFGFGFGJGFGFGKGFGKGFGJGJGJGKGHB",
"AAAAAAAAAAAAAAAAAAAAAAAAAAAAAAAAMFIFICAAMANCNCOENFNFJFNFBGLGHHKHCICIFICIFIEIGIFIDIGIHIDIIIIIIINE",
"AAAAAAAAAAAAAAAAAAAAAAAAAAAAAAMBIGIFOBAABCFEFEDFMFEFDFMFEFFGJGFGKGKGKGKGKGKGKGLGKGLGLGKGLGLGCHLE",
"AAAAAAAAAAAAAABACACAFAHAIAKAJANBBHIFNBAAGCNCHDEHCHCHLGDHDHFHDHKHKHKHKHKHKHBIKHKHCINHCICIOHCIPHGH",
"AABACAFAIAKALANAOAPAPAPAABABLAOBBHGENBAAKBEECFEHFHDHDHDHDHDHDHKHDHDHFHDHFHFHHHKHKHFHHHKHKHLHLHOG",
"AAAAAAAABBBAEAEAFAHAJAKALAOALANBBHIFNBAACCFEDEFGKGKGJGJGJGJGJGJGJGJGJGJGJGJGJGNFJGJGOFKGLGKGLGFF",
"AAAAAAAAAAAAAAAABBAABBBBBBBBBABBMFIFOBAAEBGDLDMHCICIBIBIKHLHKHLHKHLHKHLHKHLHLHLHLHPHBIPHPHPHAIGF",
"AAAAAAAAAAAAAAAAAAAAAAAAAAAABBBBIGIFJDAACBHEFECFEGIEIEIEIENDIFNDIENDBFNDBFNDIEIENDNDJEBFJEJEBFHB",
"AAAAAAAAAAAAAAAAAAAAAAAAAAAAAAAAGEIGMDCBAALBHDPENHKHLHFHMGFHOGDHMGDHMGMGOGLGFHMGFHGHFHGHAHPHJHFB",
"AAAAAAAAAAAAAAAAAAAAAAAAAAAABAEAOBBHNDNBBBGALDEENGNHFHFHLGLGBGKFOFOFOFOFOFBGOFAGLGMGMGPGIHJHNEAA",
"AAAAAAAAAAAAAAAAAAAAAAAAAAHAOAOAAAIGIFJDAAAAKBEEEEHHFHMGLGOFOFJFJFFFFFJFFFNEGFOFGFAGAGHGAHAHFBAA",
"AAAAAAAAAAAAAAAAAAAAAAHALAABPAOAEAJDIGGENBAADAHCEEDGNGOGBGOFFFMEMEMEJEAEMEKEMEMEGFGFAGHGAHPCAAAA",
"AAAAAAAAAAAAAAAAAAEALAPAABLAIACAAAAAIGEGMDBBAAGAHCEECGLGMGGFFFMEKEAEODAEODAEBEMENEGFGGPGFDAAAAAA",
"AAAAAAAAAAAAAACAIAOAOAJAEABABBAAAAAANBMFIFADAAAAGAHDIDCGLGAGJFMEKEAEODODAEBEAENENEKFGGBEAAAAAAAA",
"AAAAAAAAAABAIALAKAHABABBBBBBAAAAAAAACAJDIGIFICAAAAGADCIDHFBGBGOFMEMEMEBEBEAENENEKFGGPCDAAAAAAAAA",
"AAAAAABAHAJAFABABBBBAAAAAAAAAAAAAAHAABFAJDIGIFICAAAAAAGBGCIDLFLFBGGFGFGFGFKFGFKFBEFBAAAAAAAAAAAA",
"AAAACAEACABBAABBAAAAAAAAAAAAAAAAEAOAPAKAAAOBEGIFJDCBAAAAAABAEBCCMCFDFDAEBEFDACFBAAAAAAAAAAAAAAAA",
"AABAAAAAAAAAAAAAAAAAAAAAAAAAAABANAPAIABBAAAABAIFEGGEHBAAAAAAAAAAAADAAAAAAAAAAAAAAAAAAAAAAAAAAAAA",
"AAAAAAAAAAAAAAAAAAAAAAAAAAAAAAKAPAIAAAAAAAAAFAEAHBIFEGJDNBAAAAAAAAAAAAAAAAAAAAAAAAAAAAAAAAAAAAAA",
"AAAAAAAAAAAAAAAAAAAAAAAAAAAAIANAEABBAAAAAAAAOAIAAAAAFBOCMDMDJCNBMBAAAAAAAAAAAAAAAAAAAAAAAAAAAAAA",
"AAAAAAAAAAAAAAAAAAAAAAAAAAEAKABAAAAAAAAAAAEALAAAAAAAAAAAAAAAAAAAAAAAAAAAAAAAAAAAAAAAAAAAAAAAAAAA",
"AAAAAAAAAAAAAAAAAAAAAAAABAIAFBAAAAAAAAAAAAIAEAAAAAAAAAAAAAAAAAAAAAAAAAAAAAAAAAAAAAAAAAAAAAAAAAAA",
"AAAAAAAAAAAAAAAAAAAAAAAAEABAAAAAAAAAAAAABAFABBAAAAAAAAAAAAAAAAAAAAAAAAAAAAAAAAAAAAAAAAAAAAAAAAAA",
"AAAAAAAAAAAAAAAAAAAAAABAAAAAAAAAAAAAAAAABAAAAAAAAAAAAAAAAAAAAAAAAAAAAAAAAAAAAAAAAAAAAAAAAAAAAAAA",
"AAAAAAAAAAAAAAAAAAAAAAAAAAAAAAAAAAAAAAAAAAAAAAAAAAAAAAAAAAAAAAAAAAAAAAAAAAAAAAAAAAAAAAAAAAAAAAAA",
"AAAAAAAAAAAAAAAAAAAAAAAAAAAAAAAAAAAAAAAAAAAAAAAAAAAAAAAAAAAAAAAAAAAAAAAAAAAAAAAAAAAAAAAAAAAAAAAA",
"AAAAAAAAAAAAAAAAAAAAAAAAAAAAAAAAAAAAAAAAAAAAAAAAAAAAAAAAAAAAAAAAAAAAAAAAAAAAAAAAAAAAAAAAAAAAAAAA",
"AAAAAAAAAAAAAAAAAAAAAAAAAAAAAAAAAAAAAAAAAAAAAAAAAAAAAAAAAAAAAAAAAAAAAAAAAAAAAAAAAAAAAAAAAAAAAAAA",
"AAAAAAAAAAAAAAAAAAAAAAAAAAAAAAAAAAAAAAAAAAAAAAAAAAAAAAAAAAAAAAAAAAAAAAAAAAAAAAAAAAAAAAAAAAAAAAAA",
};
